<mxfile host="app.diagrams.net" agent="Mozilla/5.0 (X11; Linux x86_64; rv:144.0) Gecko/20100101 Firefox/144.0" version="28.2.8">
  <diagram id="C5RBs43oDa-KdzZeNtuy" name="Page-1">
    <mxGraphModel dx="1832" dy="987" grid="1" gridSize="10" guides="1" tooltips="1" connect="1" arrows="1" fold="1" page="1" pageScale="1" pageWidth="827" pageHeight="1169" math="0" shadow="0">
      <root>
        <mxCell id="WIyWlLk6GJQsqaUBKTNV-0" />
        <mxCell id="WIyWlLk6GJQsqaUBKTNV-1" parent="WIyWlLk6GJQsqaUBKTNV-0" />
        <mxCell id="pndP0uwgiz2B186j4o10-5" value="&lt;p style=&quot;margin: 4px 0px 0px; text-align: center; text-decoration: underline;&quot;&gt;&lt;b&gt;enum MessageType&lt;/b&gt;&lt;/p&gt;&lt;hr size=&quot;1&quot; style=&quot;border-style:solid;&quot;&gt;&lt;div&gt;&amp;nbsp;&lt;font style=&quot;font-size: 10px;&quot;&gt;PING,&lt;br&gt;&lt;br&gt;USER_REGISTER,&lt;br&gt;USER_LOGIN,&lt;br&gt;USER_LOGIN_SUCCESS,&lt;br&gt;USER_LOGIN_FAILURE,&lt;br&gt;USER_UPDATE,&lt;br&gt;USER_LOGOUT,&lt;br&gt;&lt;br&gt;STUDENT_SEARCH_COURSE,&lt;br&gt;STUDENT_ENROLL,&lt;br&gt;STUDENT_DROP,&lt;br&gt;STUDENT_WAS_WAITLISTED,&lt;br&gt;STUDENT_WAS_ENROLLED,&lt;br&gt;STUDENT_WAITLIST_PROMOTION,&lt;br&gt;STUDENT_GET_ENROLLED_COURSES,&lt;br&gt;STUDENT_GENEREATE_SCHEDULE,&lt;br&gt;STUDENT_GET_UNITS,&lt;br&gt;STUDENT_GET_CLASSES_TAKEN,&lt;br&gt;&lt;br&gt;STUDENT_NOT_MET_REQUIREMENTS,&lt;br&gt;STUDENT_SCHEDULE_CONFLICT,&lt;br&gt;STUDENT_MAX_CREDITS_EXCEEDED,&lt;br&gt;STUDENT_COURSE_FULL,&lt;br&gt;STUDENT_COURSE_NOT_FOUND,&lt;br&gt;STUDENT_GET_WAITLIST_PLACE,&lt;br&gt;&lt;br&gt;ADMIN_GET_SCHEDULE_REPORT,&lt;br&gt;ADMIN_GET_ENROLLMENT_REPORT,&lt;br&gt;&lt;br&gt;ADMIN_ADD_UNIVERSITY,&amp;nbsp; &amp;nbsp;&lt;br&gt;ADMIN_REMOVE_UNIVERSITY,&lt;br&gt;ADMIN_ADD_DEPARTMENT,&lt;br&gt;ADMIN_REMOVE_DEPARTMENT,&lt;br&gt;ADMIN_ADD_TERM,&lt;br&gt;ADMIN_REMOVE_TERM,&lt;br&gt;ADMIN_ADD_COURSE,&lt;br&gt;ADMIN_REMOVE_COURSE,&amp;nbsp;&lt;br&gt;&lt;br&gt;ADMIN_GET_USERS,&lt;br&gt;ADMIN_REMOVE_USER,&lt;br&gt;ADMIN_GET_CAMPUSES,&lt;br&gt;ADMIN_GET_DEPARTMENTS,&lt;br&gt;ADMIN_GET_TERMS,&lt;br&gt;ADMIN_GET_COURSES,&lt;br&gt;&lt;br&gt;REGISTER_SUCCESS,&lt;br&gt;REGISTER_FAILURE,&lt;br&gt;&lt;br&gt;USER_CONNECTED,&lt;br&gt;USER_DISCONNECTED,&lt;br&gt;MESSAGE_RECEIVED,&lt;br&gt;&lt;br&gt;CLIENT_UPDATE,&lt;br&gt;ERROR&lt;/font&gt;&lt;/div&gt;&lt;div&gt;&lt;br&gt;&lt;/div&gt;" style="verticalAlign=top;align=left;overflow=fill;html=1;whiteSpace=wrap;" parent="WIyWlLk6GJQsqaUBKTNV-1" vertex="1">
          <mxGeometry x="40" y="360" width="200" height="900" as="geometry" />
        </mxCell>
        <mxCell id="pndP0uwgiz2B186j4o10-11" value="&lt;p style=&quot;margin:0px;margin-top:4px;text-align:center;&quot;&gt;&lt;b&gt;Server&lt;/b&gt;&lt;/p&gt;&lt;hr size=&quot;1&quot; style=&quot;border-style:solid;&quot;&gt;&lt;p style=&quot;margin:0px;margin-left:4px;&quot;&gt;+ port: int&lt;/p&gt;&lt;p style=&quot;margin:0px;margin-left:4px;&quot;&gt;+ serverSocket : ServerSocket&lt;/p&gt;&lt;p style=&quot;margin:0px;margin-left:4px;&quot;&gt;+ requestCallback : RequestCallback&amp;lt;Message&amp;lt;?&amp;gt;, ServerConnection&amp;gt;&lt;/p&gt;&lt;p style=&quot;margin:0px;margin-left:4px;&quot;&gt;+ connectCallback : Callback&amp;lt;ServerConnection&amp;gt;&lt;/p&gt;&lt;p style=&quot;margin:0px;margin-left:4px;&quot;&gt;+ disconnectCallback :&amp;nbsp;Callback&amp;lt;ServerConnection&amp;gt;&lt;/p&gt;&lt;p style=&quot;margin:0px;margin-left:4px;&quot;&gt;+ static instance : Server&lt;/p&gt;&lt;hr size=&quot;1&quot; style=&quot;border-style:solid;&quot;&gt;&lt;p style=&quot;margin:0px;margin-left:4px;&quot;&gt;+ static Get() : Server&amp;nbsp;&lt;/p&gt;&lt;p style=&quot;margin:0px;margin-left:4px;&quot;&gt;+ OnConnect(Callback&amp;lt;ServerConnection&amp;gt; callback)&lt;/p&gt;&lt;p style=&quot;margin:0px;margin-left:4px;&quot;&gt;+ OnDisconnect(Callback&amp;lt;ServerConnection&amp;gt; callback)&lt;/p&gt;&lt;p style=&quot;margin:0px;margin-left:4px;&quot;&gt;+ OnRequest(RequestCallback&amp;lt;Message&amp;lt;?&amp;gt;, ServerConnection&amp;gt; callback)&lt;/p&gt;&lt;div&gt;&amp;nbsp;+ GetClient(int i) : ServerSession&lt;/div&gt;&lt;div&gt;&amp;nbsp;+ RemoveClient(ServerSession client) : boolean&lt;br&gt;&lt;p style=&quot;margin:0px;margin-left:4px;&quot;&gt;+ Emit(Message&amp;lt;?&amp;gt; msg)&lt;/p&gt;&lt;/div&gt;&lt;div&gt;&lt;div&gt;&amp;nbsp;+ Listen(int port)&lt;/div&gt;&lt;div&gt;&amp;nbsp;+ main() : static void&lt;/div&gt;&lt;div&gt;&lt;br&gt;&lt;/div&gt;&lt;br&gt;&lt;/div&gt;" style="verticalAlign=top;align=left;overflow=fill;html=1;whiteSpace=wrap;" parent="WIyWlLk6GJQsqaUBKTNV-1" vertex="1">
          <mxGeometry x="400" y="40" width="410" height="280" as="geometry" />
        </mxCell>
        <mxCell id="pndP0uwgiz2B186j4o10-13" value="&lt;p style=&quot;margin:0px;margin-top:4px;text-align:center;&quot;&gt;&lt;b&gt;ServerConnection&lt;/b&gt;&lt;/p&gt;&lt;hr size=&quot;1&quot; style=&quot;border-style:solid;&quot;&gt;&lt;p style=&quot;margin:0px;margin-left:4px;&quot;&gt;+ port: int&lt;/p&gt;&lt;p style=&quot;margin:0px;margin-left:4px;&quot;&gt;+ requestCallback : Callback&amp;lt;Message&amp;lt;?&amp;gt;&amp;gt;&lt;/p&gt;&lt;p style=&quot;margin:0px;margin-left:4px;&quot;&gt;+ objectInputStream : ObjectInputStream&lt;/p&gt;&lt;p style=&quot;margin:0px;margin-left:4px;&quot;&gt;+ objectOutputStream : ObjectOutputStream&lt;/p&gt;&lt;p style=&quot;margin:0px;margin-left:4px;&quot;&gt;+ authorizedUser : User&lt;/p&gt;&lt;hr size=&quot;1&quot; style=&quot;border-style:solid;&quot;&gt;&lt;p style=&quot;margin:0px;margin-left:4px;&quot;&gt;&lt;br&gt;&lt;/p&gt;&lt;p style=&quot;margin:0px;margin-left:4px;&quot;&gt;+ ServerConnection(Socket clientSocket)&lt;/p&gt;&lt;p style=&quot;margin:0px;margin-left:4px;&quot;&gt;+ OnRequest(Callback&amp;lt;Message&amp;lt;?&amp;gt;&amp;gt;) : void&lt;/p&gt;&lt;p style=&quot;margin:0px;margin-left:4px;&quot;&gt;+ SendRequest(Message&amp;lt;?&amp;gt; message) : void&lt;/p&gt;&lt;p style=&quot;margin:0px;margin-left:4px;&quot;&gt;+ GetAddress() : String&lt;/p&gt;&lt;p style=&quot;margin:0px;margin-left:4px;&quot;&gt;+ run()&lt;/p&gt;" style="verticalAlign=top;align=left;overflow=fill;html=1;whiteSpace=wrap;" parent="WIyWlLk6GJQsqaUBKTNV-1" vertex="1">
          <mxGeometry x="440" y="360" width="320" height="240" as="geometry" />
        </mxCell>
        <mxCell id="pndP0uwgiz2B186j4o10-15" value="&lt;p style=&quot;margin:0px;margin-top:4px;text-align:center;&quot;&gt;&lt;b&gt;Message&amp;lt;TObjMessage implements Serializable&amp;gt;&lt;/b&gt;&lt;/p&gt;&lt;hr size=&quot;1&quot; style=&quot;border-style:solid;&quot;&gt;&lt;p style=&quot;margin:0px;margin-left:4px;&quot;&gt;+ static counter : AtomicLong&lt;/p&gt;&lt;p style=&quot;margin:0px;margin-left:4px;&quot;&gt;+ id: long&lt;/p&gt;&lt;p style=&quot;margin:0px;margin-left:4px;&quot;&gt;+ msgType : MessageType&lt;/p&gt;&lt;p style=&quot;margin:0px;margin-left:4px;&quot;&gt;+ msgStatus : MessageStatus&lt;/p&gt;&lt;p style=&quot;margin:0px;margin-left:4px;&quot;&gt;+ arguments : TObjMessage[]&lt;/p&gt;&lt;hr size=&quot;1&quot; style=&quot;border-style:solid;&quot;&gt;&lt;p style=&quot;margin:0px;margin-left:4px;&quot;&gt;+ Message(MessageType type, MessageStatus status, TObjMessage[] args)&lt;/p&gt;&lt;p style=&quot;margin:0px;margin-left:4px;&quot;&gt;+ getId()&lt;/p&gt;&lt;p style=&quot;margin:0px;margin-left:4px;&quot;&gt;+ getType() : MessageType&lt;/p&gt;&lt;p style=&quot;margin:0px;margin-left:4px;&quot;&gt;+ getStatus() : MessageStatus&lt;/p&gt;&lt;p style=&quot;margin:0px;margin-left:4px;&quot;&gt;+ getArguments() : TObjMessage[]&lt;/p&gt;&lt;p style=&quot;margin:0px;margin-left:4px;&quot;&gt;+ hasArguments() : boolean&lt;/p&gt;&lt;p style=&quot;margin:0px;margin-left:4px;&quot;&gt;+ toString() : String&lt;/p&gt;" style="verticalAlign=top;align=left;overflow=fill;html=1;whiteSpace=wrap;" parent="WIyWlLk6GJQsqaUBKTNV-1" vertex="1">
          <mxGeometry x="40" y="40" width="290" height="240" as="geometry" />
        </mxCell>
        <mxCell id="pndP0uwgiz2B186j4o10-26" value="&lt;p style=&quot;margin:0px;margin-top:4px;text-align:center;&quot;&gt;&lt;b&gt;ServerController&lt;/b&gt;&lt;/p&gt;&lt;hr size=&quot;1&quot; style=&quot;border-style:solid;&quot;&gt;&lt;p style=&quot;margin:0px;margin-left:4px;&quot;&gt;+ static instance :&amp;nbsp;ServerController&lt;/p&gt;&lt;hr size=&quot;1&quot; style=&quot;border-style:solid;&quot;&gt;&lt;p style=&quot;margin:0px;margin-left:4px;&quot;&gt;+ static HandleMessage(Message&amp;lt;?&amp;gt; msg, ServerSession handler)&amp;nbsp;: void&lt;/p&gt;&lt;p style=&quot;margin:0px;margin-left:4px;&quot;&gt;+ static HandlePing(Message&amp;lt;Ping&amp;gt; msg, ServerSession handler) : void&lt;/p&gt;&lt;p style=&quot;margin:0px;margin-left:4px;&quot;&gt;+ static HandleAuth(Message&amp;lt;UserAuth&amp;gt; msg, ServerSession handler) : void&lt;/p&gt;&lt;p style=&quot;margin:0px;margin-left:4px;&quot;&gt;...&lt;/p&gt;&lt;p style=&quot;margin:0px;margin-left:4px;&quot;&gt;+ AddUser(String username) : void&lt;/p&gt;&lt;p style=&quot;margin:0px;margin-left:4px;&quot;&gt;+ GetUser(String username) : User&lt;/p&gt;&lt;p style=&quot;margin:0px;margin-left:4px;&quot;&gt;+ UserAuth(String username, String password) : bool&lt;/p&gt;&lt;p style=&quot;margin:0px;margin-left:4px;&quot;&gt;+ AddCampus(Campus campus) : void&lt;/p&gt;&lt;p style=&quot;margin:0px;margin-left:4px;&quot;&gt;+ GetCampus(String name) : Campus&lt;/p&gt;" style="verticalAlign=top;align=left;overflow=fill;html=1;whiteSpace=wrap;" parent="WIyWlLk6GJQsqaUBKTNV-1" vertex="1">
          <mxGeometry x="390" y="650" width="420" height="250" as="geometry" />
        </mxCell>
        <mxCell id="FHnGH8fOrIO7uKTPneB4-3" value="&lt;p style=&quot;margin: 4px 0px 0px; text-align: center; text-decoration: underline;&quot;&gt;&lt;b&gt;enum MessageStatus&lt;/b&gt;&lt;/p&gt;&lt;hr size=&quot;1&quot; style=&quot;border-style:solid;&quot;&gt;&lt;div&gt;&amp;nbsp; REQUEST,&lt;/div&gt;&lt;div&gt;&amp;nbsp; RESPONSE,&lt;/div&gt;&lt;div&gt;&amp;nbsp; SUCCESS,&lt;/div&gt;&lt;div&gt;&amp;nbsp; FAILURE&lt;/div&gt;" style="verticalAlign=top;align=left;overflow=fill;html=1;whiteSpace=wrap;" parent="WIyWlLk6GJQsqaUBKTNV-1" vertex="1">
          <mxGeometry x="250" y="360" width="180" height="120" as="geometry" />
        </mxCell>
        <mxCell id="FHnGH8fOrIO7uKTPneB4-4" style="edgeStyle=orthogonalEdgeStyle;rounded=0;orthogonalLoop=1;jettySize=auto;html=1;exitX=0.75;exitY=1;exitDx=0;exitDy=0;entryX=0.058;entryY=0.019;entryDx=0;entryDy=0;entryPerimeter=0;" parent="WIyWlLk6GJQsqaUBKTNV-1" source="pndP0uwgiz2B186j4o10-15" target="FHnGH8fOrIO7uKTPneB4-3" edge="1">
          <mxGeometry relative="1" as="geometry" />
        </mxCell>
        <mxCell id="FHnGH8fOrIO7uKTPneB4-5" value="1" style="edgeLabel;html=1;align=center;verticalAlign=middle;resizable=0;points=[];" parent="FHnGH8fOrIO7uKTPneB4-4" vertex="1" connectable="0">
          <mxGeometry x="-0.6987" y="3" relative="1" as="geometry">
            <mxPoint x="3" y="-4" as="offset" />
          </mxGeometry>
        </mxCell>
        <mxCell id="FHnGH8fOrIO7uKTPneB4-6" style="edgeStyle=orthogonalEdgeStyle;rounded=0;orthogonalLoop=1;jettySize=auto;html=1;exitX=0.5;exitY=1;exitDx=0;exitDy=0;entryX=0.528;entryY=-0.008;entryDx=0;entryDy=0;entryPerimeter=0;" parent="WIyWlLk6GJQsqaUBKTNV-1" source="pndP0uwgiz2B186j4o10-11" target="pndP0uwgiz2B186j4o10-13" edge="1">
          <mxGeometry relative="1" as="geometry" />
        </mxCell>
        <mxCell id="FHnGH8fOrIO7uKTPneB4-7" value="*" style="edgeLabel;html=1;align=center;verticalAlign=middle;resizable=0;points=[];" parent="FHnGH8fOrIO7uKTPneB4-6" vertex="1" connectable="0">
          <mxGeometry x="0.6205" y="3" relative="1" as="geometry">
            <mxPoint x="7" as="offset" />
          </mxGeometry>
        </mxCell>
        <mxCell id="FHnGH8fOrIO7uKTPneB4-8" value="&lt;p style=&quot;margin:0px;margin-top:4px;text-align:center;&quot;&gt;&lt;b&gt;record Ping implements Serializable&lt;/b&gt;&lt;/p&gt;&lt;hr size=&quot;1&quot; style=&quot;border-style:solid;&quot;&gt;&lt;p style=&quot;margin:0px;margin-left:4px;&quot;&gt;+ message: String&lt;/p&gt;&lt;hr size=&quot;1&quot; style=&quot;border-style:solid;&quot;&gt;" style="verticalAlign=top;align=left;overflow=fill;html=1;whiteSpace=wrap;" parent="WIyWlLk6GJQsqaUBKTNV-1" vertex="1">
          <mxGeometry x="880" y="440" width="280" height="80" as="geometry" />
        </mxCell>
        <mxCell id="FHnGH8fOrIO7uKTPneB4-9" value="&lt;p style=&quot;margin:0px;margin-top:4px;text-align:center;&quot;&gt;&lt;i&gt;&amp;lt;&amp;lt;Interface&amp;gt;&amp;gt;&lt;/i&gt;&lt;br&gt;&lt;b&gt;Callback&lt;/b&gt;&lt;/p&gt;&lt;hr size=&quot;1&quot; style=&quot;border-style:solid;&quot;&gt;&lt;br&gt;&lt;hr size=&quot;1&quot; style=&quot;border-style:solid;&quot;&gt;&lt;p style=&quot;margin:0px;margin-left:4px;&quot;&gt;+ call(T t)&lt;/p&gt;" style="verticalAlign=top;align=left;overflow=fill;html=1;whiteSpace=wrap;" parent="WIyWlLk6GJQsqaUBKTNV-1" vertex="1">
          <mxGeometry x="880" y="40" width="190" height="160" as="geometry" />
        </mxCell>
        <mxCell id="FHnGH8fOrIO7uKTPneB4-10" value="&lt;p style=&quot;margin:0px;margin-top:4px;text-align:center;&quot;&gt;&lt;i&gt;&amp;lt;&amp;lt;Interface&amp;gt;&amp;gt;&lt;/i&gt;&lt;br&gt;&lt;b&gt;RequestCallback&lt;/b&gt;&lt;/p&gt;&lt;hr size=&quot;1&quot; style=&quot;border-style:solid;&quot;&gt;&lt;br&gt;&lt;hr size=&quot;1&quot; style=&quot;border-style:solid;&quot;&gt;&lt;p style=&quot;margin:0px;margin-left:4px;&quot;&gt;+ call(T t, U, u)&lt;/p&gt;" style="verticalAlign=top;align=left;overflow=fill;html=1;whiteSpace=wrap;" parent="WIyWlLk6GJQsqaUBKTNV-1" vertex="1">
          <mxGeometry x="880" y="240" width="190" height="160" as="geometry" />
        </mxCell>
        <mxCell id="FHnGH8fOrIO7uKTPneB4-12" style="edgeStyle=orthogonalEdgeStyle;rounded=0;orthogonalLoop=1;jettySize=auto;html=1;exitX=0;exitY=0.5;exitDx=0;exitDy=0;entryX=1.005;entryY=0.559;entryDx=0;entryDy=0;entryPerimeter=0;" parent="WIyWlLk6GJQsqaUBKTNV-1" source="pndP0uwgiz2B186j4o10-11" target="pndP0uwgiz2B186j4o10-15" edge="1">
          <mxGeometry relative="1" as="geometry">
            <Array as="points">
              <mxPoint x="400" y="174" />
            </Array>
          </mxGeometry>
        </mxCell>
        <mxCell id="FHnGH8fOrIO7uKTPneB4-13" value="*" style="edgeLabel;html=1;align=center;verticalAlign=middle;resizable=0;points=[];" parent="FHnGH8fOrIO7uKTPneB4-12" vertex="1" connectable="0">
          <mxGeometry x="0.4439" y="2" relative="1" as="geometry">
            <mxPoint x="-14" y="-17" as="offset" />
          </mxGeometry>
        </mxCell>
        <mxCell id="FHnGH8fOrIO7uKTPneB4-16" style="edgeStyle=orthogonalEdgeStyle;rounded=0;orthogonalLoop=1;jettySize=auto;html=1;exitX=0.25;exitY=1;exitDx=0;exitDy=0;entryX=0.365;entryY=-0.001;entryDx=0;entryDy=0;entryPerimeter=0;" parent="WIyWlLk6GJQsqaUBKTNV-1" source="pndP0uwgiz2B186j4o10-15" target="pndP0uwgiz2B186j4o10-5" edge="1">
          <mxGeometry relative="1" as="geometry">
            <Array as="points">
              <mxPoint x="120" y="280" />
              <mxPoint x="120" y="320" />
              <mxPoint x="113" y="320" />
            </Array>
          </mxGeometry>
        </mxCell>
        <mxCell id="FHnGH8fOrIO7uKTPneB4-17" value="1" style="edgeLabel;html=1;align=center;verticalAlign=middle;resizable=0;points=[];" parent="FHnGH8fOrIO7uKTPneB4-16" vertex="1" connectable="0">
          <mxGeometry x="0.62" y="-2" relative="1" as="geometry">
            <mxPoint x="13" as="offset" />
          </mxGeometry>
        </mxCell>
        <mxCell id="SNrk4LEU_6ysmMwqtUHv-1" value="&lt;p style=&quot;margin:0px;margin-top:4px;text-align:center;&quot;&gt;&lt;b&gt;record RegisterUser implements Serializable&lt;/b&gt;&lt;/p&gt;&lt;hr size=&quot;1&quot; style=&quot;border-style:solid;&quot;&gt;&lt;p style=&quot;margin:0px;margin-left:4px;&quot;&gt;+ username: String&lt;/p&gt;&lt;p style=&quot;margin:0px;margin-left:4px;&quot;&gt;+ password: String&lt;/p&gt;&lt;hr size=&quot;1&quot; style=&quot;border-style:solid;&quot;&gt;" style="verticalAlign=top;align=left;overflow=fill;html=1;whiteSpace=wrap;" vertex="1" parent="WIyWlLk6GJQsqaUBKTNV-1">
          <mxGeometry x="880" y="560" width="280" height="90" as="geometry" />
        </mxCell>
      </root>
    </mxGraphModel>
  </diagram>
</mxfile>
